<svg width="260" height="260" viewBox="0 0 260 260" fill="none" xmlns="http://www.w3.org/2000/svg">
<path d="M130 255C199.036 255 255 199.036 255 130C255 60.9644 199.036 5 130 5C60.9644 5 5 60.9644 5 130C5 199.036 60.9644 255 130 255Z" stroke="url(#paint0_linear_15_2)" stroke-width="8.33333" stroke-linecap="round" stroke-linejoin="round"/>
<g filter="url(#filter0_i_15_2)">
<path d="M130 234C185.228 234 230 189.228 230 134C230 78.7715 185.228 34 130 34C74.7715 34 30 78.7715 30 134C30 189.228 74.7715 234 130 234Z" stroke="white" stroke-width="8.33333" stroke-linecap="round" stroke-linejoin="round"/>
</g>
<path d="M130 5L238.253 192.5H21.7468L130 5Z" fill="url(#paint1_linear_15_2)"/>
<path d="M130 88.9455L114.031 61L130 33.0545L145.969 61L130 88.9455Z" fill="black" stroke="white" stroke-width="7"/>
<g filter="url(#filter1_d_15_2)">
<path d="M149.111 141.542L173.603 184H136.381L130.5 173.768L124.619 184H87.397L111.889 141.542L106.33 131.874L76.2788 184H39.0571L106.33 67.501L130.5 109.396L154.67 67.501L221.943 184H184.721L154.67 131.874L149.111 141.542Z" fill="black"/>
</g>
<g filter="url(#filter2_d_15_2)">
<path d="M184.551 184L154.5 131.874L124.449 184H87.2271L154.5 67.501L221.773 184H184.551Z" fill="white"/>
</g>
<defs>
<filter id="filter0_i_15_2" x="25.8333" y="29.8333" width="208.333" height="212.333" filterUnits="userSpaceOnUse" color-interpolation-filters="sRGB">
<feFlood flood-opacity="0" result="BackgroundImageFix"/>
<feBlend mode="normal" in="SourceGraphic" in2="BackgroundImageFix" result="shape"/>
<feColorMatrix in="SourceAlpha" type="matrix" values="0 0 0 0 0 0 0 0 0 0 0 0 0 0 0 0 0 0 127 0" result="hardAlpha"/>
<feOffset dy="4"/>
<feGaussianBlur stdDeviation="2"/>
<feComposite in2="hardAlpha" operator="arithmetic" k2="-1" k3="1"/>
<feColorMatrix type="matrix" values="0 0 0 0 0 0 0 0 0 0 0 0 0 0 0 0 0 0 0.25 0"/>
<feBlend mode="normal" in2="shape" result="effect1_innerShadow_15_2"/>
</filter>
<filter id="filter1_d_15_2" x="35.0571" y="67.501" width="190.886" height="124.499" filterUnits="userSpaceOnUse" color-interpolation-filters="sRGB">
<feFlood flood-opacity="0" result="BackgroundImageFix"/>
<feColorMatrix in="SourceAlpha" type="matrix" values="0 0 0 0 0 0 0 0 0 0 0 0 0 0 0 0 0 0 127 0" result="hardAlpha"/>
<feOffset dy="4"/>
<feGaussianBlur stdDeviation="2"/>
<feComposite in2="hardAlpha" operator="out"/>
<feColorMatrix type="matrix" values="0 0 0 0 0 0 0 0 0 0 0 0 0 0 0 0 0 0 0.25 0"/>
<feBlend mode="normal" in2="BackgroundImageFix" result="effect1_dropShadow_15_2"/>
<feBlend mode="normal" in="SourceGraphic" in2="effect1_dropShadow_15_2" result="shape"/>
</filter>
<filter id="filter2_d_15_2" x="83.2271" y="67.501" width="142.546" height="124.499" filterUnits="userSpaceOnUse" color-interpolation-filters="sRGB">
<feFlood flood-opacity="0" result="BackgroundImageFix"/>
<feColorMatrix in="SourceAlpha" type="matrix" values="0 0 0 0 0 0 0 0 0 0 0 0 0 0 0 0 0 0 127 0" result="hardAlpha"/>
<feOffset dy="4"/>
<feGaussianBlur stdDeviation="2"/>
<feComposite in2="hardAlpha" operator="out"/>
<feColorMatrix type="matrix" values="0 0 0 0 0 0 0 0 0 0 0 0 0 0 0 0 0 0 0.25 0"/>
<feBlend mode="normal" in2="BackgroundImageFix" result="effect1_dropShadow_15_2"/>
<feBlend mode="normal" in="SourceGraphic" in2="effect1_dropShadow_15_2" result="shape"/>
</filter>
<linearGradient id="paint0_linear_15_2" x1="5" y1="130" x2="265.625" y2="130" gradientUnits="userSpaceOnUse">
<stop stop-color="#00FFD1"/>
<stop offset="0.227083" stop-color="#00FF85"/>
<stop offset="0.492708" stop-color="#00FF66"/>
<stop offset="0.753125" stop-color="#00E0FF"/>
<stop offset="1" stop-color="#00D1FF"/>
</linearGradient>
<linearGradient id="paint1_linear_15_2" x1="5" y1="130" x2="255" y2="130" gradientUnits="userSpaceOnUse">
<stop stop-color="#00FFD1"/>
<stop offset="0.227083" stop-color="#00FF85"/>
<stop offset="0.482292" stop-color="#00FF66"/>
<stop offset="0.763542" stop-color="#00E0FF"/>
<stop offset="1" stop-color="#00D1FF"/>
</linearGradient>
</defs>
</svg>
