<svg width="1205" height="260" viewBox="0 0 1205 260" fill="none" xmlns="http://www.w3.org/2000/svg">
<g filter="url(#filter0_i_10_18)">
<path d="M293.47 69C293.31 69 293.31 69.16 293.31 69.48C293.31 105.32 293.31 141.16 293.31 177C332.51 177 371.55 177 410.75 177C410.75 154.76 410.75 132.52 410.75 110.28C397.95 110.28 348.67 110.28 335.87 110.28C336.03 118.76 335.87 125.32 335.87 135.72C340.19 135.72 380.99 135.72 385.15 135.72C385.15 141 385.15 146.28 385.15 151.4C363.07 151.24 340.67 151.56 318.91 151.24C318.91 132.36 318.91 113.48 318.91 94.44C349.15 94.44 379.23 94.44 409.47 94.44C409.31 85.96 409.63 77.16 409.31 69C370.75 69 332.19 69 293.47 69ZM437.851 109.14C455.791 109.14 473.601 109.14 491.541 109.14C491.541 114.47 491.541 119.8 491.541 125.13C473.601 125.13 455.791 125.13 437.851 125.13V109.14ZM512.341 88.34C480.491 88.34 448.771 88.34 416.921 88.34C416.921 117.98 416.921 147.62 416.921 177C423.941 177 430.831 177 437.721 177C437.721 165.95 437.721 154.9 437.721 143.72C455.661 143.85 473.861 143.59 491.541 143.85C491.541 154.9 491.541 166.08 491.541 177C498.431 177 505.321 177 512.341 177C512.341 147.62 512.341 117.98 512.341 88.34ZM518.115 88.34C517.985 88.47 517.985 88.6 517.985 88.73C517.985 118.5 517.985 147.36 517.985 177C524.875 177 532.025 177.13 538.785 177C538.785 153.99 538.785 132.15 538.785 109.14C543.725 109.14 548.665 109.14 553.605 109.14C553.605 117.98 553.605 168.16 553.605 177C560.495 177 567.515 177 574.405 177C574.405 168.16 574.405 117.98 574.405 109.14C579.475 109.27 585.065 109.01 589.875 109.27C589.875 132.15 589.875 153.99 589.875 177C596.635 177.13 603.785 176.87 610.675 177C610.675 147.1 610.675 118.37 610.675 88.34C579.865 88.34 548.925 88.34 518.115 88.34ZM709.708 177C709.708 169.98 709.708 165.3 709.708 158.28C685.268 158.28 664.078 158.67 639.768 158.28C639.768 153.6 639.768 148.66 639.768 143.85C651.858 143.85 697.618 143.85 709.708 143.85C709.708 136.96 709.708 130.07 709.708 123.18C697.618 123.18 651.858 123.18 639.768 123.18C639.898 118.63 639.768 116.42 639.768 109.53C664.338 109.53 685.268 109.53 709.708 109.53C709.708 102.64 709.708 95.36 709.708 88.34C678.248 88.34 648.738 88.34 617.278 88.34C617.278 118.37 617.278 146.71 617.278 176.74L709.708 177ZM753.136 67.88C752.976 68.04 752.976 68.2 752.976 68.36C752.976 105 752.976 140.52 752.976 177C761.456 177 770.256 177.16 778.576 177C778.576 148.68 778.576 121.8 778.576 93.48C784.656 93.48 790.736 93.48 796.816 93.48C796.816 104.36 796.816 166.12 796.816 177C805.296 177 813.936 177 822.416 177C822.416 166.12 822.416 104.36 822.416 93.48C828.656 93.64 835.536 93.32 841.456 93.64C841.456 121.8 841.456 148.68 841.456 177C849.776 177.16 858.576 176.84 867.056 177C867.056 140.2 867.056 104.84 867.056 67.88C829.136 67.88 791.056 67.88 753.136 67.88ZM894.232 109.14C912.172 109.14 929.982 109.14 947.922 109.14C947.922 114.47 947.922 119.8 947.922 125.13C929.982 125.13 912.172 125.13 894.232 125.13V109.14ZM968.722 88.34C936.872 88.34 905.152 88.34 873.302 88.34C873.302 117.98 873.302 147.62 873.302 177C880.322 177 887.212 177 894.102 177C894.102 165.95 894.102 154.9 894.102 143.72C912.042 143.85 930.242 143.59 947.922 143.85C947.922 154.9 947.922 166.08 947.922 177C954.812 177 961.702 177 968.722 177C968.722 147.62 968.722 117.98 968.722 88.34ZM973.846 177C980.866 177 987.756 177 994.646 177C994.776 164.26 994.516 121.75 994.776 109.14C1011.81 109.14 1028.84 109.14 1045.87 109.14C1045.87 131.76 1045.87 154.51 1045.87 177C1052.76 177 1059.65 177 1066.67 177C1066.67 147.62 1066.67 117.98 1066.67 88.34C1035.73 88.34 1004.92 88.34 973.976 88.34L973.846 177ZM1072.12 88.34C1071.99 88.47 1071.99 88.6 1071.99 88.73C1071.99 109.27 1071.99 156.46 1071.99 177C1078.88 177 1085.77 177 1092.66 177C1092.66 156.33 1092.66 109.01 1092.66 88.34C1085.77 88.34 1079.01 88.34 1072.12 88.34ZM1119.07 109.14C1137.01 109.14 1154.82 109.14 1172.76 109.14C1172.76 114.47 1172.76 119.8 1172.76 125.13C1154.82 125.13 1137.01 125.13 1119.07 125.13V109.14ZM1193.56 88.34C1161.71 88.34 1129.99 88.34 1098.14 88.34C1098.14 117.98 1098.14 147.62 1098.14 177C1105.16 177 1112.05 177 1118.94 177C1118.94 165.95 1118.94 154.9 1118.94 143.72C1136.88 143.85 1155.08 143.59 1172.76 143.85C1172.76 154.9 1172.76 166.08 1172.76 177C1179.65 177 1186.54 177 1193.56 177C1193.56 147.62 1193.56 117.98 1193.56 88.34Z" fill="white"/>
</g>
<path d="M130 255C199.036 255 255 199.036 255 130C255 60.9644 199.036 5 130 5C60.9644 5 5 60.9644 5 130C5 199.036 60.9644 255 130 255Z" stroke="url(#paint0_linear_10_18)" stroke-width="8.33333" stroke-linecap="round" stroke-linejoin="round"/>
<g filter="url(#filter1_i_10_18)">
<path d="M130 230C185.228 230 230 185.228 230 130C230 74.7715 185.228 30 130 30C74.7715 30 30 74.7715 30 130C30 185.228 74.7715 230 130 230Z" stroke="white" stroke-width="8.33333" stroke-linecap="round" stroke-linejoin="round"/>
</g>
<path d="M130 5L238.253 192.5H21.7468L130 5Z" fill="url(#paint1_linear_10_18)"/>
<path d="M130 88.9455L114.031 61L130 33.0545L145.969 61L130 88.9455Z" fill="black" stroke="white" stroke-width="7"/>
<g filter="url(#filter2_d_10_18)">
<path d="M149.111 141.542L173.603 184H136.381L130.5 173.768L124.619 184H87.397L111.889 141.542L106.33 131.874L76.2788 184H39.0571L106.33 67.501L130.5 109.396L154.67 67.501L221.943 184H184.721L154.67 131.874L149.111 141.542Z" fill="black"/>
</g>
<g filter="url(#filter3_d_10_18)">
<path d="M184.551 184L154.5 131.874L124.449 184H87.2271L154.5 67.501L221.773 184H184.551Z" fill="white"/>
</g>
<defs>
<filter id="filter0_i_10_18" x="293.31" y="67.88" width="900.246" height="113.28" filterUnits="userSpaceOnUse" color-interpolation-filters="sRGB">
<feFlood flood-opacity="0" result="BackgroundImageFix"/>
<feBlend mode="normal" in="SourceGraphic" in2="BackgroundImageFix" result="shape"/>
<feColorMatrix in="SourceAlpha" type="matrix" values="0 0 0 0 0 0 0 0 0 0 0 0 0 0 0 0 0 0 127 0" result="hardAlpha"/>
<feOffset dy="4"/>
<feGaussianBlur stdDeviation="2"/>
<feComposite in2="hardAlpha" operator="arithmetic" k2="-1" k3="1"/>
<feColorMatrix type="matrix" values="0 0 0 0 0 0 0 0 0 0 0 0 0 0 0 0 0 0 0.25 0"/>
<feBlend mode="normal" in2="shape" result="effect1_innerShadow_10_18"/>
</filter>
<filter id="filter1_i_10_18" x="25.8333" y="25.8333" width="208.333" height="212.333" filterUnits="userSpaceOnUse" color-interpolation-filters="sRGB">
<feFlood flood-opacity="0" result="BackgroundImageFix"/>
<feBlend mode="normal" in="SourceGraphic" in2="BackgroundImageFix" result="shape"/>
<feColorMatrix in="SourceAlpha" type="matrix" values="0 0 0 0 0 0 0 0 0 0 0 0 0 0 0 0 0 0 127 0" result="hardAlpha"/>
<feOffset dy="4"/>
<feGaussianBlur stdDeviation="2"/>
<feComposite in2="hardAlpha" operator="arithmetic" k2="-1" k3="1"/>
<feColorMatrix type="matrix" values="0 0 0 0 0 0 0 0 0 0 0 0 0 0 0 0 0 0 0.25 0"/>
<feBlend mode="normal" in2="shape" result="effect1_innerShadow_10_18"/>
</filter>
<filter id="filter2_d_10_18" x="35.0571" y="67.501" width="190.886" height="124.499" filterUnits="userSpaceOnUse" color-interpolation-filters="sRGB">
<feFlood flood-opacity="0" result="BackgroundImageFix"/>
<feColorMatrix in="SourceAlpha" type="matrix" values="0 0 0 0 0 0 0 0 0 0 0 0 0 0 0 0 0 0 127 0" result="hardAlpha"/>
<feOffset dy="4"/>
<feGaussianBlur stdDeviation="2"/>
<feComposite in2="hardAlpha" operator="out"/>
<feColorMatrix type="matrix" values="0 0 0 0 0 0 0 0 0 0 0 0 0 0 0 0 0 0 0.25 0"/>
<feBlend mode="normal" in2="BackgroundImageFix" result="effect1_dropShadow_10_18"/>
<feBlend mode="normal" in="SourceGraphic" in2="effect1_dropShadow_10_18" result="shape"/>
</filter>
<filter id="filter3_d_10_18" x="83.2271" y="67.501" width="142.546" height="124.499" filterUnits="userSpaceOnUse" color-interpolation-filters="sRGB">
<feFlood flood-opacity="0" result="BackgroundImageFix"/>
<feColorMatrix in="SourceAlpha" type="matrix" values="0 0 0 0 0 0 0 0 0 0 0 0 0 0 0 0 0 0 127 0" result="hardAlpha"/>
<feOffset dy="4"/>
<feGaussianBlur stdDeviation="2"/>
<feComposite in2="hardAlpha" operator="out"/>
<feColorMatrix type="matrix" values="0 0 0 0 0 0 0 0 0 0 0 0 0 0 0 0 0 0 0.25 0"/>
<feBlend mode="normal" in2="BackgroundImageFix" result="effect1_dropShadow_10_18"/>
<feBlend mode="normal" in="SourceGraphic" in2="effect1_dropShadow_10_18" result="shape"/>
</filter>
<linearGradient id="paint0_linear_10_18" x1="5" y1="130" x2="265.625" y2="130" gradientUnits="userSpaceOnUse">
<stop stop-color="#00FFD1"/>
<stop offset="0.227083" stop-color="#00FF85"/>
<stop offset="0.492708" stop-color="#00FF66"/>
<stop offset="0.753125" stop-color="#00E0FF"/>
<stop offset="1" stop-color="#00D1FF"/>
</linearGradient>
<linearGradient id="paint1_linear_10_18" x1="5" y1="130" x2="255" y2="130" gradientUnits="userSpaceOnUse">
<stop stop-color="#00FFD1"/>
<stop offset="0.227083" stop-color="#00FF85"/>
<stop offset="0.482292" stop-color="#00FF66"/>
<stop offset="0.763542" stop-color="#00E0FF"/>
<stop offset="1" stop-color="#00D1FF"/>
</linearGradient>
</defs>
</svg>
