<svg width="120" height="120" viewBox="0 0 120 120" fill="none" xmlns="http://www.w3.org/2000/svg">
<path d="M60 0C26.8548 0 0 26.8548 0 60C0 93.1452 26.8548 120 60 120C93.1452 120 120 93.1452 120 60C120 26.8548 93.1452 0 60 0ZM60 23.2258C71.7581 23.2258 81.2903 32.7581 81.2903 44.5161C81.2903 56.2742 71.7581 65.8064 60 65.8064C48.2419 65.8064 38.7097 56.2742 38.7097 44.5161C38.7097 32.7581 48.2419 23.2258 60 23.2258ZM60 106.452C45.7984 106.452 33.0726 100.016 24.5565 89.9516C29.1048 81.3871 38.0081 75.4839 48.3871 75.4839C48.9677 75.4839 49.5484 75.5806 50.1048 75.75C53.25 76.7661 56.5403 77.4194 60 77.4194C63.4597 77.4194 66.7742 76.7661 69.8952 75.75C70.4516 75.5806 71.0323 75.4839 71.6129 75.4839C81.9919 75.4839 90.8952 81.3871 95.4435 89.9516C86.9274 100.016 74.2016 106.452 60 106.452Z" fill="#F8F8F8"/>
</svg>
