<svg width="160" height="70" viewBox="0 0 160 70" fill="none" xmlns="http://www.w3.org/2000/svg">
<path d="M0 5C0 2.23858 2.23858 0 5 0H155C157.761 0 160 2.23858 160 5V65C160 67.7614 157.761 70 155 70H5C2.23858 70 0 67.7614 0 65V5Z" fill="url(#paint0_linear_1_2)"/>
<rect width="160" height="60" rx="5" fill="#111111"/>
<path d="M59.8965 33.7354L63.3857 34.79C63.1514 35.7686 62.7822 36.5859 62.2783 37.2422C61.7744 37.8984 61.1475 38.3936 60.3975 38.7275C59.6533 39.0615 58.7041 39.2285 57.5498 39.2285C56.1494 39.2285 55.0039 39.0264 54.1133 38.6221C53.2285 38.2119 52.4639 37.4941 51.8193 36.4688C51.1748 35.4434 50.8525 34.1309 50.8525 32.5312C50.8525 30.3984 51.418 28.7607 52.5488 27.6182C53.6855 26.4697 55.291 25.8955 57.3652 25.8955C58.9883 25.8955 60.2627 26.2236 61.1885 26.8799C62.1201 27.5361 62.8115 28.5439 63.2627 29.9033L59.7471 30.6855C59.624 30.293 59.4951 30.0059 59.3604 29.8242C59.1377 29.5195 58.8652 29.2852 58.543 29.1211C58.2207 28.957 57.8604 28.875 57.4619 28.875C56.5596 28.875 55.8682 29.2383 55.3877 29.9648C55.0244 30.5039 54.8428 31.3506 54.8428 32.5049C54.8428 33.9346 55.0596 34.916 55.4932 35.4492C55.9268 35.9766 56.5361 36.2402 57.3213 36.2402C58.083 36.2402 58.6572 36.0264 59.0439 35.5986C59.4365 35.1709 59.7207 34.5498 59.8965 33.7354ZM64.8271 32.5664C64.8271 30.4629 65.4131 28.8252 66.585 27.6533C67.7568 26.4814 69.3887 25.8955 71.4805 25.8955C73.625 25.8955 75.2773 26.4727 76.4375 27.627C77.5977 28.7754 78.1777 30.3867 78.1777 32.4609C78.1777 33.9668 77.9229 35.2031 77.4131 36.1699C76.9092 37.1309 76.1768 37.8809 75.2158 38.4199C74.2607 38.9531 73.0684 39.2197 71.6387 39.2197C70.1855 39.2197 68.9814 38.9883 68.0264 38.5254C67.0771 38.0625 66.3066 37.3301 65.7148 36.3281C65.123 35.3262 64.8271 34.0723 64.8271 32.5664ZM68.8086 32.584C68.8086 33.8848 69.0488 34.8193 69.5293 35.3877C70.0156 35.9561 70.6748 36.2402 71.5068 36.2402C72.3623 36.2402 73.0244 35.9619 73.4932 35.4053C73.9619 34.8486 74.1963 33.8496 74.1963 32.4082C74.1963 31.1953 73.9502 30.3105 73.458 29.7539C72.9717 29.1914 72.3096 28.9102 71.4717 28.9102C70.6689 28.9102 70.0244 29.1943 69.5381 29.7627C69.0518 30.3311 68.8086 31.2715 68.8086 32.584ZM80.2783 26.1152H85.5166L87.5381 33.9551L89.5508 26.1152H94.7715V39H91.5195V29.1738L88.9971 39H86.0527L83.5391 29.1738V39H80.2783V26.1152ZM97.3027 26.1152H103.921C105.362 26.1152 106.44 26.458 107.155 27.1436C107.876 27.8291 108.236 28.8047 108.236 30.0703C108.236 31.3711 107.844 32.3877 107.059 33.1201C106.279 33.8525 105.087 34.2188 103.481 34.2188H101.302V39H97.3027V26.1152ZM101.302 31.6084H102.277C103.045 31.6084 103.584 31.4766 103.895 31.2129C104.205 30.9434 104.36 30.6006 104.36 30.1846C104.36 29.7803 104.226 29.4375 103.956 29.1562C103.687 28.875 103.18 28.7344 102.436 28.7344H101.302V31.6084ZM110.381 39V26.1152H117.017C118.247 26.1152 119.188 26.2207 119.838 26.4316C120.488 26.6426 121.013 27.0352 121.411 27.6094C121.81 28.1777 122.009 28.8721 122.009 29.6924C122.009 30.4072 121.856 31.0254 121.552 31.5469C121.247 32.0625 120.828 32.4814 120.295 32.8037C119.955 33.0088 119.489 33.1787 118.897 33.3135C119.372 33.4717 119.718 33.6299 119.935 33.7881C120.081 33.8936 120.292 34.1191 120.567 34.4648C120.849 34.8105 121.036 35.0771 121.13 35.2646L123.055 39H118.555L116.428 35.0625C116.158 34.5527 115.918 34.2217 115.707 34.0693C115.42 33.8701 115.095 33.7705 114.731 33.7705H114.38V39H110.381ZM114.38 31.3359H116.059C116.24 31.3359 116.592 31.2773 117.113 31.1602C117.377 31.1074 117.591 30.9727 117.755 30.7559C117.925 30.5391 118.01 30.29 118.01 30.0088C118.01 29.5928 117.878 29.2734 117.614 29.0508C117.351 28.8281 116.855 28.7168 116.129 28.7168H114.38V31.3359ZM132.266 36.873H127.73L127.106 39H123.037L127.88 26.1152H132.222L137.064 39H132.898L132.266 36.873ZM131.431 34.0869L130.007 29.4551L128.592 34.0869H131.431ZM138.4 39V26.1152H145.036C146.267 26.1152 147.207 26.2207 147.857 26.4316C148.508 26.6426 149.032 27.0352 149.431 27.6094C149.829 28.1777 150.028 28.8721 150.028 29.6924C150.028 30.4072 149.876 31.0254 149.571 31.5469C149.267 32.0625 148.848 32.4814 148.314 32.8037C147.975 33.0088 147.509 33.1787 146.917 33.3135C147.392 33.4717 147.737 33.6299 147.954 33.7881C148.101 33.8936 148.312 34.1191 148.587 34.4648C148.868 34.8105 149.056 35.0771 149.149 35.2646L151.074 39H146.574L144.447 35.0625C144.178 34.5527 143.938 34.2217 143.727 34.0693C143.439 33.8701 143.114 33.7705 142.751 33.7705H142.399V39H138.4ZM142.399 31.3359H144.078C144.26 31.3359 144.611 31.2773 145.133 31.1602C145.396 31.1074 145.61 30.9727 145.774 30.7559C145.944 30.5391 146.029 30.29 146.029 30.0088C146.029 29.5928 145.897 29.2734 145.634 29.0508C145.37 28.8281 144.875 28.7168 144.148 28.7168H142.399V31.3359Z" fill="white"/>
<path d="M44.75 19.3346C44.39 18.7108 43.8745 18.1911 43.2538 17.826C42.6331 17.4608 41.9284 17.2628 41.2083 17.2512H14.5417L13.3333 12.5429C13.2112 12.0884 12.9389 11.6886 12.5606 11.4087C12.1823 11.1287 11.7203 10.9851 11.25 11.0012H7.08333C6.5308 11.0012 6.00089 11.2207 5.61019 11.6114C5.21949 12.0021 5 12.532 5 13.0846C5 13.6371 5.21949 14.167 5.61019 14.5577C6.00089 14.9484 6.5308 15.1679 7.08333 15.1679H9.66667L15.4167 36.5429C15.5388 36.9974 15.8111 37.3972 16.1894 37.6771C16.5677 37.9571 17.0297 38.1007 17.5 38.0846H36.25C36.6347 38.0834 37.0116 37.9757 37.3389 37.7735C37.6662 37.5712 37.931 37.2823 38.1042 36.9387L44.9375 23.2721C45.2337 22.6513 45.3716 21.9668 45.3388 21.2797C45.3061 20.5927 45.1038 19.9244 44.75 19.3346ZM34.9583 33.9179H19.0833L15.6875 21.4179H41.2083L34.9583 33.9179Z" fill="#F8F8F8"/>
<path d="M16.4583 48.5012C18.1842 48.5012 19.5833 47.1021 19.5833 45.3762C19.5833 43.6503 18.1842 42.2512 16.4583 42.2512C14.7324 42.2512 13.3333 43.6503 13.3333 45.3762C13.3333 47.1021 14.7324 48.5012 16.4583 48.5012Z" fill="#F8F8F8"/>
<path d="M37.2917 48.5012C39.0176 48.5012 40.4167 47.1021 40.4167 45.3762C40.4167 43.6503 39.0176 42.2512 37.2917 42.2512C35.5658 42.2512 34.1667 43.6503 34.1667 45.3762C34.1667 47.1021 35.5658 48.5012 37.2917 48.5012Z" fill="#F8F8F8"/>
<defs>
<linearGradient id="paint0_linear_1_2" x1="-8.75" y1="34.9998" x2="151.25" y2="34.9998" gradientUnits="userSpaceOnUse">
<stop stop-color="#00FF66" stop-opacity="0.8"/>
<stop offset="0.25" stop-color="#00E0FF" stop-opacity="0.8"/>
<stop offset="0.510417" stop-color="#00FFD1" stop-opacity="0.8"/>
<stop offset="0.75" stop-color="#00FF85" stop-opacity="0.8"/>
<stop offset="1" stop-color="#00D1FF" stop-opacity="0.71"/>
</linearGradient>
</defs>
</svg>
